<mxfile host="app.diagrams.net" modified="2023-12-18T03:09:36.655Z" agent="Mozilla/5.0 (Windows NT 10.0; Win64; x64) AppleWebKit/537.36 (KHTML, like Gecko) Chrome/101.0.0.0 Safari/537.36" version="22.1.11" etag="Jdr-UsZ-TUK1tMr0X0FH" type="github">
  <diagram name="Page-1" id="oxIBppUR0O7fYyhMZaKm">
    <mxGraphModel>
      <root>
        <mxCell id="0" />
        <mxCell id="1" parent="0" />
      </root>
    </mxGraphModel>
  </diagram>
</mxfile>
